<mxfile host="Electron" modified="2023-11-30T13:55:22.623Z" agent="Mozilla/5.0 (Windows NT 10.0; Win64; x64) AppleWebKit/537.36 (KHTML, like Gecko) draw.io/22.0.3 Chrome/114.0.5735.289 Electron/25.8.4 Safari/537.36" etag="7CIer6aA61TTxAXGBhS4" version="22.0.3" type="device">
  <diagram name="Trang-1" id="rnw6xyqlt7PU62Y2sIlr">
    <mxGraphModel dx="1036" dy="606" grid="1" gridSize="10" guides="1" tooltips="1" connect="1" arrows="1" fold="1" page="1" pageScale="1" pageWidth="1100" pageHeight="850" math="0" shadow="0">
      <root>
        <mxCell id="0" />
        <mxCell id="1" parent="0" />
        <mxCell id="c3GiUSnAjnzcnMJR6o-S-2" value="&lt;font face=&quot;Times New Roman&quot;&gt;&lt;i&gt;V&lt;sub&gt;CE&lt;/sub&gt;&lt;/i&gt;&lt;/font&gt;" style="text;html=1;strokeColor=none;fillColor=none;align=center;verticalAlign=middle;whiteSpace=wrap;rounded=0;fontSize=22;fontFamily=Helvetica;fontColor=default;strokeWidth=20;movable=1;resizable=1;rotatable=1;deletable=1;editable=1;locked=0;connectable=1;" parent="1" vertex="1">
          <mxGeometry x="440.00000000000006" y="275" width="40" height="30" as="geometry" />
        </mxCell>
        <mxCell id="c3GiUSnAjnzcnMJR6o-S-3" value="" style="edgeStyle=orthogonalEdgeStyle;shape=connector;rounded=0;orthogonalLoop=1;jettySize=auto;html=1;labelBackgroundColor=default;strokeColor=default;align=center;verticalAlign=middle;fontFamily=Helvetica;fontSize=11;fontColor=default;endArrow=none;endFill=0;" parent="1" source="c3GiUSnAjnzcnMJR6o-S-4" target="c3GiUSnAjnzcnMJR6o-S-30" edge="1">
          <mxGeometry relative="1" as="geometry" />
        </mxCell>
        <mxCell id="c3GiUSnAjnzcnMJR6o-S-4" value="" style="verticalLabelPosition=bottom;shadow=0;dashed=0;align=center;html=1;verticalAlign=top;shape=mxgraph.electrical.transistors.npn_transistor_5;fontSize=22;movable=1;resizable=1;rotatable=1;deletable=1;editable=1;locked=0;connectable=1;" parent="1" vertex="1">
          <mxGeometry x="385.82" y="240" width="64" height="100" as="geometry" />
        </mxCell>
        <mxCell id="c3GiUSnAjnzcnMJR6o-S-5" value="" style="pointerEvents=1;verticalLabelPosition=bottom;shadow=0;dashed=0;align=center;html=1;verticalAlign=top;shape=mxgraph.electrical.resistors.resistor_2;rotation=90;aspect=fixed;fontSize=22;movable=1;resizable=1;rotatable=1;deletable=1;editable=1;locked=0;connectable=1;" parent="1" vertex="1">
          <mxGeometry x="400" y="150" width="100" height="20" as="geometry" />
        </mxCell>
        <mxCell id="c3GiUSnAjnzcnMJR6o-S-6" style="edgeStyle=orthogonalEdgeStyle;shape=connector;rounded=0;orthogonalLoop=1;jettySize=auto;html=1;exitX=0.5;exitY=0;exitDx=0;exitDy=0;exitPerimeter=0;labelBackgroundColor=default;strokeColor=default;align=center;verticalAlign=middle;fontFamily=Helvetica;fontSize=11;fontColor=default;endArrow=none;endFill=0;" parent="1" source="c3GiUSnAjnzcnMJR6o-S-7" target="c3GiUSnAjnzcnMJR6o-S-8" edge="1">
          <mxGeometry relative="1" as="geometry" />
        </mxCell>
        <mxCell id="c3GiUSnAjnzcnMJR6o-S-7" value="" style="pointerEvents=1;verticalLabelPosition=bottom;shadow=0;dashed=0;align=center;html=1;verticalAlign=top;shape=mxgraph.electrical.signal_sources.signal_ground;fontFamily=Helvetica;fontSize=22;fontColor=default;movable=1;resizable=1;rotatable=1;deletable=1;editable=1;locked=0;connectable=1;" parent="1" vertex="1">
          <mxGeometry x="427.5" y="470" width="45" height="30" as="geometry" />
        </mxCell>
        <mxCell id="c3GiUSnAjnzcnMJR6o-S-8" value="" style="shape=waypoint;sketch=0;size=6;pointerEvents=1;points=[];fillColor=none;resizable=1;rotatable=1;perimeter=centerPerimeter;snapToPoint=1;fontFamily=Helvetica;fontSize=22;fontColor=default;movable=1;deletable=1;editable=1;locked=0;connectable=1;" parent="1" vertex="1">
          <mxGeometry x="440" y="450" width="20" height="20" as="geometry" />
        </mxCell>
        <mxCell id="c3GiUSnAjnzcnMJR6o-S-9" style="edgeStyle=orthogonalEdgeStyle;shape=connector;rounded=0;orthogonalLoop=1;jettySize=auto;html=1;exitX=1;exitY=1;exitDx=0;exitDy=0;exitPerimeter=0;entryX=0.643;entryY=0.221;entryDx=0;entryDy=0;entryPerimeter=0;labelBackgroundColor=default;strokeColor=default;align=center;verticalAlign=middle;fontFamily=Helvetica;fontSize=22;fontColor=default;endArrow=none;endFill=0;movable=1;resizable=1;rotatable=1;deletable=1;editable=1;locked=0;connectable=1;" parent="1" source="c3GiUSnAjnzcnMJR6o-S-4" target="c3GiUSnAjnzcnMJR6o-S-8" edge="1">
          <mxGeometry relative="1" as="geometry">
            <Array as="points">
              <mxPoint x="450" y="340" />
            </Array>
          </mxGeometry>
        </mxCell>
        <mxCell id="c3GiUSnAjnzcnMJR6o-S-10" value="&lt;font face=&quot;Times New Roman&quot;&gt;&lt;i&gt;R&lt;sub&gt;C&lt;/sub&gt;&lt;/i&gt;&lt;/font&gt;" style="text;html=1;strokeColor=none;fillColor=none;align=center;verticalAlign=middle;whiteSpace=wrap;rounded=0;fontSize=22;fontFamily=Helvetica;fontColor=default;strokeWidth=20;movable=1;resizable=1;rotatable=1;deletable=1;editable=1;locked=0;connectable=1;" parent="1" vertex="1">
          <mxGeometry x="462.5" y="140" width="40" height="30" as="geometry" />
        </mxCell>
        <mxCell id="c3GiUSnAjnzcnMJR6o-S-11" value="&lt;font face=&quot;Times New Roman&quot;&gt;&lt;i&gt;R&lt;sub&gt;B&lt;/sub&gt;&lt;/i&gt;&lt;/font&gt;" style="text;html=1;strokeColor=none;fillColor=none;align=center;verticalAlign=middle;whiteSpace=wrap;rounded=0;fontSize=22;fontFamily=Helvetica;fontColor=default;strokeWidth=20;movable=1;resizable=1;rotatable=1;deletable=1;editable=1;locked=0;connectable=1;" parent="1" vertex="1">
          <mxGeometry x="210.00000000000006" y="150" width="40" height="30" as="geometry" />
        </mxCell>
        <mxCell id="c3GiUSnAjnzcnMJR6o-S-12" value="" style="endArrow=classic;html=1;rounded=0;labelBackgroundColor=default;strokeColor=default;align=center;verticalAlign=middle;fontFamily=Helvetica;fontSize=22;fontColor=default;shape=connector;movable=1;resizable=1;rotatable=1;deletable=1;editable=1;locked=0;connectable=1;" parent="1" edge="1">
          <mxGeometry width="50" height="50" relative="1" as="geometry">
            <mxPoint x="430" y="140" as="sourcePoint" />
            <mxPoint x="430" y="180" as="targetPoint" />
          </mxGeometry>
        </mxCell>
        <mxCell id="c3GiUSnAjnzcnMJR6o-S-13" value="&lt;span style=&quot;font-weight: 400;&quot;&gt;i&lt;sub&gt;C&lt;/sub&gt;&lt;/span&gt;" style="text;html=1;strokeColor=none;fillColor=none;align=center;verticalAlign=middle;whiteSpace=wrap;rounded=0;fontSize=22;fontFamily=Times New Roman;fontColor=default;fontStyle=3;movable=1;resizable=1;rotatable=1;deletable=1;editable=1;locked=0;connectable=1;" parent="1" vertex="1">
          <mxGeometry x="390.82" y="140" width="30" height="30" as="geometry" />
        </mxCell>
        <mxCell id="c3GiUSnAjnzcnMJR6o-S-14" value="" style="endArrow=classic;html=1;rounded=0;labelBackgroundColor=default;strokeColor=default;align=center;verticalAlign=middle;fontFamily=Helvetica;fontSize=22;fontColor=default;shape=connector;movable=1;resizable=1;rotatable=1;deletable=1;editable=1;locked=0;connectable=1;" parent="1" edge="1">
          <mxGeometry width="50" height="50" relative="1" as="geometry">
            <mxPoint x="324.82" y="304.76" as="sourcePoint" />
            <mxPoint x="379.82" y="304.76" as="targetPoint" />
          </mxGeometry>
        </mxCell>
        <mxCell id="c3GiUSnAjnzcnMJR6o-S-15" value="&lt;span style=&quot;font-weight: 400;&quot;&gt;i&lt;sub&gt;B&lt;/sub&gt;&lt;/span&gt;" style="text;html=1;strokeColor=none;fillColor=none;align=center;verticalAlign=middle;whiteSpace=wrap;rounded=0;fontSize=22;fontFamily=Times New Roman;fontColor=default;fontStyle=3;movable=1;resizable=1;rotatable=1;deletable=1;editable=1;locked=0;connectable=1;" parent="1" vertex="1">
          <mxGeometry x="330" y="310" width="30" height="30" as="geometry" />
        </mxCell>
        <mxCell id="c3GiUSnAjnzcnMJR6o-S-16" value="&lt;font face=&quot;Times New Roman&quot;&gt;&lt;i&gt;V&lt;sub&gt;BE&lt;/sub&gt;&lt;/i&gt;&lt;/font&gt;" style="text;html=1;strokeColor=none;fillColor=none;align=center;verticalAlign=middle;whiteSpace=wrap;rounded=0;fontSize=22;fontFamily=Helvetica;fontColor=default;strokeWidth=20;movable=1;resizable=1;rotatable=1;deletable=1;editable=1;locked=0;connectable=1;" parent="1" vertex="1">
          <mxGeometry x="379.82000000000005" y="310" width="40" height="30" as="geometry" />
        </mxCell>
        <mxCell id="c3GiUSnAjnzcnMJR6o-S-17" value="&lt;font face=&quot;Times New Roman&quot;&gt;&lt;i&gt;+&lt;/i&gt;&lt;/font&gt;" style="text;html=1;strokeColor=none;fillColor=none;align=center;verticalAlign=middle;whiteSpace=wrap;rounded=0;fontSize=22;fontFamily=Helvetica;fontColor=default;strokeWidth=20;movable=1;resizable=1;rotatable=1;deletable=1;editable=1;locked=0;connectable=1;" parent="1" vertex="1">
          <mxGeometry x="440.00000000000006" y="240" width="40" height="30" as="geometry" />
        </mxCell>
        <mxCell id="c3GiUSnAjnzcnMJR6o-S-18" value="&lt;font face=&quot;Times New Roman&quot;&gt;&lt;i&gt;-&lt;/i&gt;&lt;/font&gt;" style="text;html=1;strokeColor=none;fillColor=none;align=center;verticalAlign=middle;whiteSpace=wrap;rounded=0;fontSize=22;fontFamily=Helvetica;fontColor=default;strokeWidth=20;movable=1;resizable=1;rotatable=1;deletable=1;editable=1;locked=0;connectable=1;" parent="1" vertex="1">
          <mxGeometry x="440.00000000000006" y="315" width="40" height="30" as="geometry" />
        </mxCell>
        <mxCell id="c3GiUSnAjnzcnMJR6o-S-19" value="&lt;font face=&quot;Times New Roman&quot;&gt;&lt;i&gt;+&lt;/i&gt;&lt;/font&gt;" style="text;html=1;strokeColor=none;fillColor=none;align=center;verticalAlign=middle;whiteSpace=wrap;rounded=0;fontSize=22;fontFamily=Helvetica;fontColor=default;strokeWidth=20;movable=1;resizable=1;rotatable=1;deletable=1;editable=1;locked=0;connectable=1;" parent="1" vertex="1">
          <mxGeometry x="390.82" y="295" width="30" height="20" as="geometry" />
        </mxCell>
        <mxCell id="c3GiUSnAjnzcnMJR6o-S-20" value="&lt;font face=&quot;Times New Roman&quot;&gt;&lt;i&gt;-&lt;/i&gt;&lt;/font&gt;" style="text;html=1;strokeColor=none;fillColor=none;align=center;verticalAlign=middle;whiteSpace=wrap;rounded=0;fontSize=22;fontFamily=Helvetica;fontColor=default;strokeWidth=20;movable=1;resizable=1;rotatable=1;deletable=1;editable=1;locked=0;connectable=1;" parent="1" vertex="1">
          <mxGeometry x="419.82" y="350" width="30" height="20" as="geometry" />
        </mxCell>
        <mxCell id="c3GiUSnAjnzcnMJR6o-S-21" value="&lt;span style=&quot;font-weight: 400;&quot;&gt;C&lt;/span&gt;" style="text;html=1;strokeColor=none;fillColor=none;align=center;verticalAlign=middle;whiteSpace=wrap;rounded=0;fontSize=22;fontFamily=Times New Roman;fontColor=default;fontStyle=3;movable=1;resizable=1;rotatable=1;deletable=1;editable=1;locked=0;connectable=1;" parent="1" vertex="1">
          <mxGeometry x="419.64" y="230" width="30" height="30" as="geometry" />
        </mxCell>
        <mxCell id="c3GiUSnAjnzcnMJR6o-S-22" value="&lt;span style=&quot;font-weight: 400;&quot;&gt;B&lt;/span&gt;" style="text;html=1;strokeColor=none;fillColor=none;align=center;verticalAlign=middle;whiteSpace=wrap;rounded=0;fontSize=22;fontFamily=Times New Roman;fontColor=default;fontStyle=3;movable=1;resizable=1;rotatable=1;deletable=1;editable=1;locked=0;connectable=1;" parent="1" vertex="1">
          <mxGeometry x="390.82" y="260" width="30" height="30" as="geometry" />
        </mxCell>
        <mxCell id="c3GiUSnAjnzcnMJR6o-S-23" value="&lt;span style=&quot;font-weight: 400;&quot;&gt;E&lt;/span&gt;" style="text;html=1;strokeColor=none;fillColor=none;align=center;verticalAlign=middle;whiteSpace=wrap;rounded=0;fontSize=22;fontFamily=Times New Roman;fontColor=default;fontStyle=3;movable=1;resizable=1;rotatable=1;deletable=1;editable=1;locked=0;connectable=1;" parent="1" vertex="1">
          <mxGeometry x="419.82" y="325.82" width="30" height="30" as="geometry" />
        </mxCell>
        <mxCell id="0t38ZaClhf_Gpu8gWHHl-2" value="" style="edgeStyle=orthogonalEdgeStyle;rounded=0;orthogonalLoop=1;jettySize=auto;html=1;endArrow=none;endFill=0;" parent="1" source="c3GiUSnAjnzcnMJR6o-S-24" target="0t38ZaClhf_Gpu8gWHHl-1" edge="1">
          <mxGeometry relative="1" as="geometry" />
        </mxCell>
        <mxCell id="c3GiUSnAjnzcnMJR6o-S-24" value="" style="shape=waypoint;sketch=0;size=6;pointerEvents=1;points=[];fillColor=none;resizable=0;rotatable=0;perimeter=centerPerimeter;snapToPoint=1;" parent="1" vertex="1">
          <mxGeometry x="350" y="70" width="20" height="20" as="geometry" />
        </mxCell>
        <mxCell id="c3GiUSnAjnzcnMJR6o-S-25" style="edgeStyle=orthogonalEdgeStyle;rounded=0;orthogonalLoop=1;jettySize=auto;html=1;exitX=1;exitY=0;exitDx=0;exitDy=0;exitPerimeter=0;entryX=1;entryY=0.5;entryDx=0;entryDy=0;entryPerimeter=0;endArrow=none;endFill=0;" parent="1" source="c3GiUSnAjnzcnMJR6o-S-4" target="c3GiUSnAjnzcnMJR6o-S-5" edge="1">
          <mxGeometry relative="1" as="geometry" />
        </mxCell>
        <mxCell id="c3GiUSnAjnzcnMJR6o-S-26" style="edgeStyle=orthogonalEdgeStyle;rounded=0;orthogonalLoop=1;jettySize=auto;html=1;exitX=0;exitY=0.5;exitDx=0;exitDy=0;exitPerimeter=0;endArrow=none;endFill=0;" parent="1" source="c3GiUSnAjnzcnMJR6o-S-5" edge="1">
          <mxGeometry relative="1" as="geometry">
            <mxPoint x="360" y="80" as="targetPoint" />
            <Array as="points">
              <mxPoint x="450" y="80" />
            </Array>
          </mxGeometry>
        </mxCell>
        <mxCell id="c3GiUSnAjnzcnMJR6o-S-27" value="" style="edgeStyle=orthogonalEdgeStyle;shape=connector;rounded=0;orthogonalLoop=1;jettySize=auto;html=1;labelBackgroundColor=default;strokeColor=default;align=center;verticalAlign=middle;fontFamily=Helvetica;fontSize=11;fontColor=default;endArrow=none;endFill=0;" parent="1" source="c3GiUSnAjnzcnMJR6o-S-28" target="c3GiUSnAjnzcnMJR6o-S-30" edge="1">
          <mxGeometry relative="1" as="geometry" />
        </mxCell>
        <mxCell id="c3GiUSnAjnzcnMJR6o-S-28" value="" style="pointerEvents=1;verticalLabelPosition=bottom;shadow=0;dashed=0;align=center;html=1;verticalAlign=top;shape=mxgraph.electrical.resistors.resistor_2;rotation=90;aspect=fixed;fontSize=22;movable=1;resizable=1;rotatable=1;deletable=1;editable=1;locked=0;connectable=1;" parent="1" vertex="1">
          <mxGeometry x="220" y="160" width="100" height="20" as="geometry" />
        </mxCell>
        <mxCell id="c3GiUSnAjnzcnMJR6o-S-29" style="edgeStyle=orthogonalEdgeStyle;shape=connector;rounded=0;orthogonalLoop=1;jettySize=auto;html=1;exitX=0;exitY=0.5;exitDx=0;exitDy=0;exitPerimeter=0;entryX=0.217;entryY=1.041;entryDx=0;entryDy=0;entryPerimeter=0;labelBackgroundColor=default;strokeColor=default;align=center;verticalAlign=middle;fontFamily=Helvetica;fontSize=11;fontColor=default;endArrow=none;endFill=0;" parent="1" source="c3GiUSnAjnzcnMJR6o-S-28" target="c3GiUSnAjnzcnMJR6o-S-24" edge="1">
          <mxGeometry relative="1" as="geometry">
            <Array as="points">
              <mxPoint x="270" y="80" />
            </Array>
          </mxGeometry>
        </mxCell>
        <mxCell id="c3GiUSnAjnzcnMJR6o-S-30" value="" style="shape=waypoint;sketch=0;size=6;pointerEvents=1;points=[];fillColor=none;resizable=0;rotatable=0;perimeter=centerPerimeter;snapToPoint=1;fontFamily=Helvetica;fontSize=11;fontColor=default;" parent="1" vertex="1">
          <mxGeometry x="260" y="280" width="20" height="20" as="geometry" />
        </mxCell>
        <mxCell id="c3GiUSnAjnzcnMJR6o-S-31" value="" style="pointerEvents=1;verticalLabelPosition=bottom;shadow=0;dashed=0;align=center;html=1;verticalAlign=top;shape=mxgraph.electrical.signal_sources.source;aspect=fixed;points=[[0.5,0,0],[1,0.5,0],[0.5,1,0],[0,0.5,0]];elSignalType=dc3;fontFamily=Helvetica;fontSize=11;fontColor=default;" parent="1" vertex="1">
          <mxGeometry x="100" y="355.82" width="60" height="60" as="geometry" />
        </mxCell>
        <mxCell id="c3GiUSnAjnzcnMJR6o-S-32" value="" style="pointerEvents=1;verticalLabelPosition=bottom;shadow=0;dashed=0;align=center;html=1;verticalAlign=top;shape=mxgraph.electrical.capacitors.capacitor_1;fontFamily=Helvetica;fontSize=11;fontColor=default;" parent="1" vertex="1">
          <mxGeometry x="160" y="270" width="70" height="40" as="geometry" />
        </mxCell>
        <mxCell id="c3GiUSnAjnzcnMJR6o-S-33" style="edgeStyle=orthogonalEdgeStyle;shape=connector;rounded=0;orthogonalLoop=1;jettySize=auto;html=1;exitX=1;exitY=0.5;exitDx=0;exitDy=0;exitPerimeter=0;entryX=0.21;entryY=0.61;entryDx=0;entryDy=0;entryPerimeter=0;labelBackgroundColor=default;strokeColor=default;align=center;verticalAlign=middle;fontFamily=Helvetica;fontSize=11;fontColor=default;endArrow=none;endFill=0;" parent="1" source="c3GiUSnAjnzcnMJR6o-S-32" target="c3GiUSnAjnzcnMJR6o-S-30" edge="1">
          <mxGeometry relative="1" as="geometry" />
        </mxCell>
        <mxCell id="c3GiUSnAjnzcnMJR6o-S-34" style="edgeStyle=orthogonalEdgeStyle;shape=connector;rounded=0;orthogonalLoop=1;jettySize=auto;html=1;exitX=0.5;exitY=0;exitDx=0;exitDy=0;exitPerimeter=0;entryX=0;entryY=0.5;entryDx=0;entryDy=0;entryPerimeter=0;labelBackgroundColor=default;strokeColor=default;align=center;verticalAlign=middle;fontFamily=Helvetica;fontSize=11;fontColor=default;endArrow=none;endFill=0;" parent="1" source="c3GiUSnAjnzcnMJR6o-S-31" target="c3GiUSnAjnzcnMJR6o-S-32" edge="1">
          <mxGeometry relative="1" as="geometry" />
        </mxCell>
        <mxCell id="c3GiUSnAjnzcnMJR6o-S-35" value="&lt;font face=&quot;Times New Roman&quot;&gt;&lt;i&gt;C&lt;sub&gt;C&lt;/sub&gt;&lt;/i&gt;&lt;/font&gt;" style="text;html=1;strokeColor=none;fillColor=none;align=center;verticalAlign=middle;whiteSpace=wrap;rounded=0;fontSize=22;fontFamily=Helvetica;fontColor=default;strokeWidth=20;movable=1;resizable=1;rotatable=1;deletable=1;editable=1;locked=0;connectable=1;" parent="1" vertex="1">
          <mxGeometry x="175.00000000000006" y="230" width="40" height="30" as="geometry" />
        </mxCell>
        <mxCell id="c3GiUSnAjnzcnMJR6o-S-36" value="&lt;font face=&quot;Times New Roman&quot;&gt;&lt;i&gt;v&lt;sub&gt;S&lt;/sub&gt;&lt;/i&gt;&lt;/font&gt;" style="text;html=1;strokeColor=none;fillColor=none;align=center;verticalAlign=middle;whiteSpace=wrap;rounded=0;fontSize=22;fontFamily=Helvetica;fontColor=default;strokeWidth=20;movable=1;resizable=1;rotatable=1;deletable=1;editable=1;locked=0;connectable=1;" parent="1" vertex="1">
          <mxGeometry x="50.00000000000006" y="370" width="40" height="30" as="geometry" />
        </mxCell>
        <mxCell id="c3GiUSnAjnzcnMJR6o-S-37" value="" style="edgeStyle=orthogonalEdgeStyle;shape=connector;rounded=0;orthogonalLoop=1;jettySize=auto;html=1;labelBackgroundColor=default;strokeColor=default;align=center;verticalAlign=middle;fontFamily=Helvetica;fontSize=11;fontColor=default;endArrow=none;endFill=0;" parent="1" source="c3GiUSnAjnzcnMJR6o-S-38" target="c3GiUSnAjnzcnMJR6o-S-31" edge="1">
          <mxGeometry relative="1" as="geometry" />
        </mxCell>
        <mxCell id="c3GiUSnAjnzcnMJR6o-S-38" value="" style="pointerEvents=1;verticalLabelPosition=bottom;shadow=0;dashed=0;align=center;html=1;verticalAlign=top;shape=mxgraph.electrical.signal_sources.signal_ground;fontFamily=Helvetica;fontSize=22;fontColor=default;movable=1;resizable=1;rotatable=1;deletable=1;editable=1;locked=0;connectable=1;" parent="1" vertex="1">
          <mxGeometry x="107.5" y="470" width="45" height="30" as="geometry" />
        </mxCell>
        <mxCell id="0t38ZaClhf_Gpu8gWHHl-1" value="" style="shape=waypoint;sketch=0;size=6;pointerEvents=1;points=[];fillColor=none;resizable=0;rotatable=0;perimeter=centerPerimeter;snapToPoint=1;" parent="1" vertex="1">
          <mxGeometry x="350" y="30" width="20" height="20" as="geometry" />
        </mxCell>
        <mxCell id="0t38ZaClhf_Gpu8gWHHl-3" value="&lt;font face=&quot;Times New Roman&quot;&gt;&lt;i&gt;V&lt;sub&gt;CC&lt;/sub&gt;&lt;/i&gt;&lt;/font&gt;" style="text;html=1;strokeColor=none;fillColor=none;align=center;verticalAlign=middle;whiteSpace=wrap;rounded=0;fontSize=22;fontFamily=Helvetica;fontColor=default;strokeWidth=20;movable=1;resizable=1;rotatable=1;deletable=1;editable=1;locked=0;connectable=1;" parent="1" vertex="1">
          <mxGeometry x="339.82000000000005" width="40" height="30" as="geometry" />
        </mxCell>
      </root>
    </mxGraphModel>
  </diagram>
</mxfile>
